<?xml version="1.0" encoding="UTF-8"?>
<svg id="Layer_1" xmlns="http://www.w3.org/2000/svg" viewBox="0 0 1080 270.88">
  <defs>
    <style>
      .cls-1 {
        fill: #ed8400;
      }

      .cls-2 {
        fill: #4c1f87;
      }
    </style>
  </defs>
  <path class="cls-2" d="M368.73,51.53c-41.23,0-69.1,26.42-69.1,70.84s25.84,71.71,69.1,71.71,68.52-27.58,68.52-71.71-27.87-70.84-68.52-70.84ZM368.44,170.85c-28.16,0-43.55-19.45-43.55-48.77s16.55-47.32,43.55-47.32,43.55,18.29,43.55,47.32-15.68,48.77-43.55,48.77Z"/>
  <path class="cls-2" d="M479.05,96.82h-.58v-41.81h-25.26v135.58h25.26v-71.71c0-26.13,11.32-36,36.87-36h12.19v-27.87h-8.42c-21.77,0-34.55,10.16-40.06,41.81Z"/>
  <rect class="cls-1" x="538.85" y="12.62" width="28.74" height="21.48"/>
  <rect class="cls-2" x="540.59" y="55.01" width="24.97" height="135.58"/>
  <path class="cls-2" d="M675.59,163.88c-15.39,0-33.39.87-49.94.87-8.42,0-13.06-2.32-13.06-7.84,0-2.9,1.74-4.65,3.77-8.13l3.77-5.52c6.68,1.74,14.52,2.9,23.23,2.9,36.87,0,56.32-13.35,56.32-38.61,0-20.03-13.65-27.87-31.94-31.06v-.58c10.16.58,16.55.87,23.52.87h19.45v-21.77h-65.32c-36.29,0-57.48,16.55-57.48,46.74,0,20.03,10.74,34.55,30.48,40.94l-10.45,5.52c-9.29,3.77-15.39,10.16-15.39,16.84,0,9.87,7.55,15.68,18.58,17.42-20.61,2.9-31.36,11.9-31.36,23.52,0,17.42,14.81,28.16,66.77,28.16s68.23-12.77,68.23-38.03c0-20.32-12.19-32.23-39.19-32.23ZM610.85,102.62c0-16.26,9.58-26.42,32.52-26.42s34.26,9.87,34.26,26.42-9.87,25.84-33.68,25.84-33.1-9.58-33.1-25.84ZM645.98,214.69c-36.29,0-45.87-4.35-45.87-15.97,0-7.84,6.97-15.68,23.52-15.68h53.13c12.77,0,17.13,6.1,17.13,13.06,0,12.48-8.42,18.58-47.9,18.58Z"/>
  <path class="cls-2" d="M786.78,51.53c-41.23,0-68.81,27-68.81,72.29s27.29,69.97,69.1,69.97c34.55,0,54-17.13,60.97-43.84l-22.36-6.68c-4.65,15.97-14.23,28.45-38.61,28.45-25.84,0-41.23-14.52-43.84-40.94h105.1c.58-6.39.58-11.9.58-16.26,0-37.16-21.77-63-62.13-63ZM743.81,111.04c3.48-25.26,18.87-37.74,42.1-37.74,24.97,0,37.45,13.65,39.19,37.74h-81.29Z"/>
  <path class="cls-2" d="M1032.1,51.53c-26.42,0-42.39,13.35-47.32,42.39h-.29c-2.61-24.39-15.68-42.39-46.74-42.39-23.81,0-41.52,12.48-47.32,40.06h-.29v-36.58h-25.26v135.58h25.26v-80.42c0-22.65,13.94-35.71,37.16-35.71,24.68,0,32.52,17.13,32.52,35.71v80.42h25.26v-80.42c0-22.65,13.94-35.71,37.16-35.71,24.68,0,32.52,17.13,32.52,35.71v80.42h25.26v-86.81c0-29.03-12.19-52.26-47.9-52.26Z"/>
  <path class="cls-1" d="M881.57,226.84h-16.7v43.29h16.7c5.88,0,10.76-2.1,14.6-6.25,3.9-4.21,5.81-9.34,5.81-15.4s-1.92-11.19-5.81-15.34c-3.83-4.21-8.72-6.31-14.6-6.31ZM893.2,260.98c-3.03,3.4-6.87,5.07-11.63,5.07h-12.37v-35.13h12.37c4.76,0,8.6,1.67,11.63,5.07,3.03,3.4,4.58,7.55,4.58,12.49s-1.55,9.09-4.58,12.49Z"/>
  <rect class="cls-1" x="909.39" y="226.84" width="4.33" height="43.29"/>
  <path class="cls-1" d="M943.34,253.62h17.19c-.43,3.77-2.1,6.93-5.01,9.4-2.91,2.41-6.8,3.65-11.69,3.65-5.38,0-9.83-1.73-13.24-5.26-3.4-3.52-5.13-7.79-5.13-12.93s1.73-9.4,5.13-12.93c3.4-3.53,7.85-5.26,13.24-5.26,6.43,0,12.18,3.4,14.91,8.66l3.83-2.23c-1.79-3.22-4.39-5.81-7.73-7.73-3.34-1.92-6.99-2.91-11.01-2.91-6.56,0-12,2.17-16.27,6.49-4.27,4.33-6.43,9.65-6.43,15.9s2.17,11.57,6.43,15.89c4.27,4.33,9.71,6.49,16.27,6.49s11.57-1.86,15.4-5.5c3.83-3.71,5.75-8.23,5.75-13.61v-2.23h-21.65v4.08Z"/>
  <rect class="cls-1" x="972.4" y="226.84" width="4.33" height="43.29"/>
  <polygon class="cls-1" points="1013.83 226.84 982.91 226.84 982.91 230.92 996.21 230.92 996.21 270.13 1000.54 270.13 1000.54 230.92 1013.83 230.92 1013.83 226.84"/>
  <path class="cls-1" d="M1029.23,226.84l-16.64,43.29h4.58l4.02-10.64h20.53l4.02,10.64h4.58l-16.64-43.29h-4.45ZM1022.73,255.41l8.72-23.19,8.72,23.19h-17.44Z"/>
  <polygon class="cls-1" points="1060.21 226.84 1055.88 226.84 1055.88 270.13 1080 270.13 1080 266.05 1060.21 266.05 1060.21 226.84"/>
  <g>
    <path class="cls-1" d="M245.31,107.12C245.2,47.94,197.2,0,138,0h-30.68C48.11,0,.11,47.94,0,107.12c67.74-68.47,177.56-68.47,245.3,0Z"/>
    <path class="cls-1" d="M122.66,231.12L0,107.13c0,.06,0,.12,0,.18v30.68c0,59.27,48.05,107.31,107.31,107.31h30.68c59.27,0,107.31-48.05,107.31-107.31v-30.68c0-.06,0-.12,0-.18l-122.65,123.99Z"/>
  </g>
</svg>